{"title":"We.Love.You.Sally.Carmichael!.HDRip.XviD.AC3.ESubs.LLG","magnet":"magnet:?xt=urn:btih:5bc11dfd0ad62a1b08484477ee0009b746e59a58&dn=We.Love.You.Sally.Carmichael%21.HDRip.XviD.AC3.ESubs.LLG&tr=udp%3A%2F%2Ftracker.leechers-paradise.org%3A6969&tr=udp%3A%2F%2Fzer0day.ch%3A1337&tr=udp%3A%2F%2Fopen.demonii.com%3A1337&tr=udp%3A%2F%2Ftracker.coppersurfer.tk%3A6969&tr=udp%3A%2F%2Fexodus.desync.com%3A6969","uploader":"LifeLongg","categoryP":"video","categoryS":"movies","size":"925888143","seeders":"0","leechers":"0","description":"******************************Screenshots:********************\r\n <a href=\"\nhttp://picserver4u.com/0956.html\" rel=\"nofollow\" target=\"_NEW\">\nhttp://picserver4u.com/0956.html</a>\r\n <a href=\"\nhttp://picserver4u.com/0957.html\" rel=\"nofollow\" target=\"_NEW\">\nhttp://picserver4u.com/0957.html</a>\r\n <a href=\"\nhttp://picserver4u.com/0958.html\" rel=\"nofollow\" target=\"_NEW\">\nhttp://picserver4u.com/0958.html</a>\r\n <a href=\"\nhttp://picserver4u.com/0959.html\" rel=\"nofollow\" target=\"_NEW\">\nhttp://picserver4u.com/0959.html</a>\r\n <a href=\"\nhttp://picserver4u.com/0960.html\" rel=\"nofollow\" target=\"_NEW\">\nhttp://picserver4u.com/0960.html</a>\r\n\r\n**************************************************************\r\n\r\nGeneral\r\nComplete name                            : We.Love.You.Sally.Carmichael!.HDRip.XviD.AC3.ESubs.LLG\r\nFormat                                   : MPEG-4\r\nFormat profile                           : Base Media\r\nCodec ID                                 : isom (isom/iso2/avc1/mp41)\r\nFile size                                : 867 MiB\r\nDuration                                 : 1 h 23 min\r\nOverall bit rate                         : 1 456 kb/s\r\nWriting application                      : Lavf57.56.101\r\n\r\nVideo\r\nID                                       : 1\r\nFormat                                   : AVC\r\nFormat/Info                              : Advanced Video Codec\r\nFormat profile                           : <a href=\"/cdn-cgi/l/email-protection\" class=\"__cf_email__\" data-cfemail=\"82caebe5eac2ceb1\">[email&#xA0;protected]</a>\r\nFormat settings                          : CABAC / 4 Ref Frames\r\nFormat settings, CABAC                   : Yes\r\nFormat settings, RefFrames               : 4 frames\r\nCodec ID                                 : avc1\r\nCodec ID/Info                            : Advanced Video Coding\r\nDuration                                 : 1 h 23 min\r\nBit rate                                 : 1 200 kb/s\r\nWidth                                    : 720 pixels\r\nHeight                                   : 400 pixels\r\nDisplay aspect ratio                     : 16:9\r\nFrame rate mode                          : Constant\r\nFrame rate                               : 23.976 (23976/1000) FPS\r\nColor space                              : YUV\r\nChroma subsampling                       : 4:2:0\r\nBit depth                                : 8 bits\r\nScan type                                : Progressive\r\nBits/(Pixel*Frame)                       : 0.174\r\nStream size                              : 712 MiB (82%)\r\n\r\nAudio\r\nID                                       : 2\r\nFormat                                   : AC-3\r\nFormat/Info                              : Audio Coding 3\r\nCodec ID                                 : ac-3\r\nDuration                                 : 1 h 23 min\r\nBit rate mode                            : Constant\r\nBit rate                                 : 256 kb/s\r\nChannel(s)                               : 6 channels\r\nChannel positions                        : Front: L C R, Side: L R, LFE\r\nSampling rate                            : 48.0 kHz\r\nFrame rate                               : 31.250 FPS (1536 SPF)\r\nBit depth                                : 16 bits\r\nCompression mode                         : Lossy\r\nStream size                              : 152 MiB (18%)\r\nService kind                             : Complete Main\r\nDefault                                  : Yes\r\nAlternate group                          : 1","last_updated":"2017-12-22T12:07:26.369Z","parsed":{"xt":"urn:btih:5bc11dfd0ad62a1b08484477ee0009b746e59a58","dn":"We.Love.You.Sally.Carmichael!.HDRip.XviD.AC3.ESubs.LLG","tr":["udp://exodus.desync.com:6969","udp://open.demonii.com:1337","udp://tracker.coppersurfer.tk:6969","udp://tracker.leechers-paradise.org:6969","udp://zer0day.ch:1337"],"infoHash":"5bc11dfd0ad62a1b08484477ee0009b746e59a58","infoHashBuffer":{"type":"Buffer","data":[91,193,29,253,10,214,42,27,8,72,68,119,238,0,9,183,70,229,154,88]},"name":"We.Love.You.Sally.Carmichael!.HDRip.XviD.AC3.ESubs.LLG","announce":["udp://exodus.desync.com:6969","udp://open.demonii.com:1337","udp://tracker.coppersurfer.tk:6969","udp://tracker.leechers-paradise.org:6969","udp://zer0day.ch:1337"],"urlList":[]}}